HIERARCHY
ROOT Hips
{
	OFFSET 0.00000 0.00000 0.00000
	CHANNELS 6 Xposition Yposition Zposition Zrotation Yrotation Xrotation 
	JOINT LHipJoint
	{
		OFFSET 0 0 0
		CHANNELS 3 Zrotation Yrotation Xrotation
		JOINT LeftHip
		{
			OFFSET 1.56741 -1.82513 0.67319
			CHANNELS 3 Zrotation Yrotation Xrotation
			JOINT LeftKnee
			{
				OFFSET 2.35708 -6.47604 0.00000
				CHANNELS 3 Zrotation Yrotation Xrotation
				JOINT LeftAnkle
				{
					OFFSET 2.70636 -7.43567 0.00000
					CHANNELS 3 Zrotation Yrotation Xrotation
					JOINT LeftToe
					{
						OFFSET 0.20427 -0.56122 2.08535
						CHANNELS 3 Zrotation Yrotation Xrotation
						End Site
						{
							OFFSET 0.00000 -0.00000 1.08535
						}
					}
				}
			}
		}
	}
	JOINT RHipJoint
	{
		OFFSET 0 0 0
		CHANNELS 3 Zrotation Yrotation Xrotation
		JOINT RightHip
		{
			OFFSET -1.51422 -1.82513 0.67319
			CHANNELS 3 Zrotation Yrotation Xrotation
			JOINT RightKnee
			{
				OFFSET -2.48824 -6.83638 0.00000
				CHANNELS 3 Zrotation Yrotation Xrotation
				JOINT RightAnkle
				{
					OFFSET -2.70033 -7.41909 0.00000
					CHANNELS 3 Zrotation Yrotation Xrotation
					JOINT RightToe
					{
						OFFSET -0.19750 -0.54263 2.22151
						CHANNELS 3 Zrotation Yrotation Xrotation
						End Site
						{
							OFFSET -0.00000 -0.00000 1.14915
						}
					}
				}
			}
		}
	}
	JOINT lowerback
	{
		OFFSET 0 0 0
		CHANNELS 3 Zrotation Yrotation Xrotation
		JOINT Chest
		{
			OFFSET -0.01567 2.12874 -0.15842
			CHANNELS 3 Zrotation Yrotation Xrotation
			JOINT Chest2
			{
				OFFSET 0.06098 2.13326 -0.01043
				CHANNELS 3 Zrotation Yrotation Xrotation
				JOINT lowerneck
				{
					OFFSET 0 0 0
					CHANNELS 3 Zrotation Yrotation Xrotation
					JOINT Neck
					{
						OFFSET -0.05040 1.78432 0.13387
						CHANNELS 3 Zrotation Yrotation Xrotation
						JOINT Head
						{
							OFFSET -0.00180 1.76880 -0.33303
							CHANNELS 3 Zrotation Yrotation Xrotation
							End Site
							{
								OFFSET 0.00734 1.81249 -0.12719
							}
						}
					}
				}
				JOINT LeftCollar
				{
					OFFSET 0 0 0
					CHANNELS 3 Zrotation Yrotation Xrotation
					JOINT LeftShoulder
					{
						OFFSET 3.72199 0.94188 -0.54317
CHANNELS 3 Zrotation Xrotation Yrotation
						JOINT LeftElbow
						{
OFFSET 0 -5.146010 0.000000
CHANNELS 3 Zrotation Xrotation Yrotation
							JOINT LeftWrist
							{
OFFSET 0 -3.644520 -0.000000
CHANNELS 3 Zrotation Xrotation Yrotation
								JOINT lhand
								{
									OFFSET 0 0 0
CHANNELS 3 Zrotation Xrotation Yrotation
									JOINT LFingers
									{
OFFSET 0 -0.562280 0.000000
CHANNELS 3 Zrotation Xrotation Yrotation
										End Site
										{
OFFSET 0 -0.453320 0.000000
										}
									}
								}
								JOINT LThumb
								{
OFFSET 0 0.000000 0.000000
CHANNELS 3 Zrotation Xrotation Yrotation
									End Site
									{
OFFSET 0 -0.460250 0.460250
									}
								}
							}
						}
					}
				}
				JOINT RightCollar
				{
					OFFSET 0 0 0
					CHANNELS 3 Zrotation Yrotation Xrotation
					JOINT RightShoulder
					{
						OFFSET -3.30253 1.22679 -0.46941
CHANNELS 3 Zrotation Xrotation Yrotation
						JOINT RightElbow
						{
OFFSET 0 -5.339130 0.000000
CHANNELS 3 Zrotation Xrotation Yrotation
							JOINT RightWrist
							{
OFFSET 0 -3.564780 -0.000000
CHANNELS 3 Zrotation Xrotation Yrotation
								JOINT rhand
								{
									OFFSET 0 0 0
CHANNELS 3 Zrotation Xrotation Yrotation
									JOINT RFingers
									{
OFFSET 0 -0.857470 0.000000
CHANNELS 3 Zrotation Xrotation Yrotation
										End Site
										{
OFFSET 0 -0.691320 0.000000
										}
									}
								}
								JOINT RThumb
								{
OFFSET 0 0.000000 0.000000
CHANNELS 3 Zrotation Xrotation Yrotation
									End Site
									{
OFFSET 0 -0.701870 0.701870
									}
								}
							}
						}
					}
				}
			}
		}
	}
}
MOTION
Frames: 7
Frame Time: 0.008333333333333333
-8.016185 15.203582 9.002300 1.214765 0.732700 6.738694 0.000000 0.000000 0.000000 10.943238 -11.494653 -41.934683 7.123832 15.434536 49.339950 -0.849786 -17.114870 0.028683 3.619070 -11.635460 -34.454343 0.000000 0.000000 0.000000 13.603175 -9.413318 -27.537494 -15.820937 -19.575645 77.697494 -2.645383 3.918897 -29.865296 -1.990678 8.844212 -25.310853 -2.771488 2.603224 23.087834 -3.437138 2.469650 6.174844 -2.833151 1.220015 -6.032262 -10.463160 0.767385 -13.541658 3.576785 2.552461 7.319745 2.975392 1.173887 4.211597 0.000000 0.000000 0.000000 20.426303 -49.231255 -14.934977 146.867612 -43.431360 106.486954 12.712448 -6.280275 -4.348220 0.000000 0.000000 0.000000 -7.125000 0.000000 0.000000 -11.443176 34.258884 -3.063924 0.000000 0.000000 0.000000 -16.680717 -17.270092 18.219264 -149.252227 -41.524212 -108.097224 -16.329360 -14.982084 -17.510240 0.000000 0.000000 0.000000 7.125000 0.000000 0.000000 7.662285 11.903005 5.970344
-8.386739 15.379082 9.355346 -0.588008 5.920523 6.971103 0.000000 0.000000 0.000000 15.099811 -17.164042 -39.344601 5.807899 14.239305 44.205259 -0.804643 -16.259966 1.308435 4.076626 -12.261701 -36.664136 0.000000 0.000000 0.000000 14.660702 -13.094116 -31.034673 -17.105886 -19.797901 81.510830 -0.183048 14.054014 -11.885151 -1.358802 7.370626 -20.822152 -3.116046 1.766259 22.026225 -2.365834 1.441274 5.460510 -1.169962 0.735619 -6.330922 -8.798406 -0.251177 -12.593330 5.701336 0.588369 7.008190 3.228984 0.378671 4.097003 0.000000 0.000000 0.000000 17.710914 -47.575478 -17.448432 146.637332 -43.606941 106.328419 10.087392 -6.175881 -7.016090 0.000000 0.000000 0.000000 -7.125000 0.000000 0.000000 -14.059526 36.775102 -2.915257 0.000000 0.000000 0.000000 -18.033119 -11.633834 11.560936 -151.795798 -39.303228 -109.747144 -16.992636 -13.702434 -18.159918 0.000000 0.000000 0.000000 7.125000 0.000000 0.000000 7.248619 11.165500 5.754980
-8.794875 15.873020 9.607479 -0.731539 7.974477 7.288074 0.000000 0.000000 0.000000 15.186052 -19.164100 -34.940238 4.162852 12.372159 37.064369 -0.346695 -10.334137 4.107600 3.990986 -12.146423 -36.254771 0.000000 0.000000 0.000000 12.358805 -12.688691 -36.977995 -18.307444 -19.930620 85.045728 0.831742 16.683592 0.542659 -0.180779 2.653233 -7.319495 -4.093233 1.481735 21.928225 -1.449020 0.946319 5.585424 0.515710 0.508653 -6.168942 -7.785982 -0.894192 -13.477417 7.064626 -0.500044 6.509802 3.416522 -0.032735 4.171477 0.000000 0.000000 0.000000 18.727695 -44.701130 -14.115385 145.937508 -44.130468 105.843242 12.189181 -8.696975 -5.401783 0.000000 0.000000 0.000000 -7.125000 0.000000 0.000000 -12.037780 35.289555 -2.920169 0.000000 0.000000 0.000000 -17.631634 -6.613846 8.443425 -153.538171 -37.660850 -110.831514 -16.243070 -11.185698 -18.248647 0.000000 0.000000 0.000000 7.125000 0.000000 0.000000 7.744834 11.156046 6.154036
-9.111202 16.264028 9.761115 -1.072825 9.363974 7.387634 0.000000 0.000000 0.000000 12.348127 -17.661160 -32.946189 4.277990 12.517078 37.593300 -0.000794 0.689776 -0.895685 3.676058 -11.716069 -34.735337 0.000000 0.000000 0.000000 10.175013 -12.770413 -44.787641 -18.421867 -19.939422 85.381175 -0.150382 -0.715241 -7.666450 -0.083833 1.793669 -4.937476 -2.556332 0.412005 23.309439 0.252175 -0.011167 5.309212 1.740661 0.050765 -7.149947 -5.569058 -0.839118 -15.268766 6.088378 -0.684298 7.677080 2.750481 -0.094060 4.824275 0.000000 0.000000 0.000000 19.090087 -39.507380 -9.480593 142.835205 -46.295939 103.640419 13.587872 -9.460746 -4.588320 0.000000 0.000000 0.000000 -7.125000 0.000000 0.000000 -10.767548 34.539118 -2.804426 0.000000 0.000000 0.000000 -18.426533 -3.084575 7.928396 -152.127900 -38.997763 -109.956691 -16.850162 -9.090841 -19.981783 0.000000 0.000000 0.000000 7.125000 0.000000 0.000000 7.422146 9.315245 6.174977
-9.207859 16.412292 9.965507 -0.789797 10.405891 6.081851 0.000000 0.000000 0.000000 6.721597 -13.576890 -35.094502 9.074785 16.846163 56.333828 0.007302 -3.212079 -2.629363 3.488021 -11.445962 -33.799146 0.000000 0.000000 0.000000 4.770907 -11.978916 -48.186361 -15.427716 -19.489460 76.520625 -0.348674 -1.323012 -11.719935 -0.035345 1.194379 -3.283876 -0.044299 -0.837798 24.569977 3.625034 -0.709068 5.409716 4.232797 -0.295997 -7.638763 -3.966835 -0.417499 -15.427112 3.311540 -0.113047 7.072295 1.662113 0.050312 4.620811 0.000000 0.000000 0.000000 14.586319 -31.801171 -6.226673 139.746899 -48.219091 101.372227 12.626427 -10.553675 -5.626062 0.000000 0.000000 0.000000 -7.125000 0.000000 0.000000 -11.715170 35.537910 -2.771456 0.000000 0.000000 0.000000 -23.688426 -0.568898 3.222736 -151.006108 -40.015203 -109.243255 -17.234981 -11.374342 -20.309884 0.000000 0.000000 0.000000 7.125000 0.000000 0.000000 7.190994 8.932527 6.036354
-9.213323 16.292984 10.145186 -1.479771 6.512252 2.511881 0.000000 0.000000 0.000000 1.907297 -6.115997 -32.062104 16.351345 19.667703 79.271606 -0.257000 -11.513902 -3.649650 3.734220 -11.796814 -35.018535 0.000000 0.000000 0.000000 -0.096602 -5.520125 -47.450049 -10.812640 -17.836566 62.164574 -0.039757 4.241204 -4.117683 -1.053312 6.517468 -18.296466 2.356584 -1.258569 27.726827 7.148626 -0.224773 6.978552 6.743620 -0.105916 -7.491390 -1.551041 0.814815 -15.662963 -1.756996 1.559470 5.096609 -0.173002 0.631432 4.045216 0.000000 0.000000 0.000000 12.569652 -20.763592 2.056415 138.446716 -48.963328 100.396927 13.609133 -15.486752 -6.158516 0.000000 0.000000 0.000000 -7.125000 0.000000 0.000000 -10.994523 36.125739 -2.435534 0.000000 0.000000 0.000000 -29.417966 -1.133407 -3.002851 -150.884663 -40.122569 -109.164925 -14.551615 -12.473527 -18.444271 0.000000 0.000000 0.000000 7.125000 0.000000 0.000000 8.854793 11.141739 7.063828
-9.267015 15.774227 10.440246 0.133468 1.838477 0.478874 0.000000 0.000000 0.000000 -5.940377 1.000475 -25.019995 19.593192 19.996057 88.810550 -1.351973 -21.502605 -0.266274 3.428239 -11.356796 -33.494176 0.000000 0.000000 0.000000 -4.958404 -0.676588 -51.617058 -8.690911 -16.604544 55.014727 -0.225520 4.255438 11.512370 -0.984476 6.312759 -17.695605 2.847170 -1.676783 29.187915 8.937389 -0.494010 8.392799 8.657681 -0.292171 -6.540469 1.276503 2.330661 -13.440098 -6.369873 3.311922 2.338940 -2.120623 1.385651 3.316539 0.000000 0.000000 0.000000 12.599148 -9.505924 12.039175 135.129179 -50.703202 97.860737 14.553329 -20.398574 -6.897223 0.000000 0.000000 0.000000 -7.125000 0.000000 0.000000 -10.332747 36.927254 -2.079177 0.000000 0.000000 0.000000 -34.112291 -2.336323 -8.435370 -150.628357 -40.348601 -108.999418 -14.515342 -12.887648 -17.499866 0.000000 0.000000 0.000000 7.125000 0.000000 0.000000 8.857345 12.101412 6.888538
